<?xml version="1.0" encoding="utf-8"?>
<!-- Generator: Adobe Illustrator 23.0.2, SVG Export Plug-In . SVG Version: 6.00 Build 0)  -->
<svg version="1.1" id="Layer_1" xmlns="http://www.w3.org/2000/svg" xmlns:xlink="http://www.w3.org/1999/xlink" x="0px" y="0px"
	 viewBox="0 0 356 377" style="enable-background:new 0 0 356 377;" xml:space="preserve">
<style type="text/css">
	.st0{fill:none;stroke:#000000;stroke-width:1.6585;stroke-miterlimit:10;}
	.st1{fill:#FFFFFF;}
	.st2{fill:#FFC545;}
	.st3{fill:#FFC817;stroke:#000000;stroke-width:2;stroke-miterlimit:10;}
	.st4{fill:#FF501A;stroke:#000000;stroke-width:2;stroke-miterlimit:10;}
	.st5{fill:none;stroke:#000000;stroke-width:2;stroke-miterlimit:10;}
	.st6{stroke:#000000;stroke-width:1.6316;stroke-miterlimit:10;}
	.st7{fill:#FFFFFF;stroke:#000000;stroke-width:0.8158;stroke-miterlimit:10;}
	.st8{stroke:#000000;stroke-width:1.75;stroke-miterlimit:10;}
	.st9{stroke:#000000;stroke-width:1.4183;stroke-miterlimit:10;}
	.st10{fill:none;stroke:#000000;stroke-width:1.4183;stroke-miterlimit:10;}
</style>
<path class="st0" d="M159.94,354.25c3.57-1.34,8.39-3.79,9.54-8.09c2.18-8.18-11.22-14.4-13.9-26.66
	c-2.72-12.43,12.93-16.96,11.3-29.58c-1.38-10.7-12.19-13.36-11.55-21.47c0.77-9.68,20.54-13.12,19.67-16.69
	c-0.71-2.92-13.37-0.82-14.61-4.53c-1.38-4.14,13.69-9.01,15.4-18.71c1.32-7.51-4.55-34.49-7.04-44.68"/>
<g>
	<path class="st4" d="M168.96,27.7c-35.88,0-64.96,34.16-64.96,76.29c0,59.71,65.24,81.27,65.24,81.27s61.92-19.35,64.68-81.27
		C235.8,61.9,204.84,27.7,168.96,27.7z"/>
	<polygon class="st4" points="175.32,193 169.24,185.26 162.6,193 	"/>
</g>
</svg>
