<?xml version="1.0" encoding="utf-8"?>
<!-- Generator: Adobe Illustrator 23.0.2, SVG Export Plug-In . SVG Version: 6.00 Build 0)  -->
<svg version="1.1" id="Layer_1" xmlns="http://www.w3.org/2000/svg" xmlns:xlink="http://www.w3.org/1999/xlink" x="0px" y="0px"
	 viewBox="0 0 799 398" style="enable-background:new 0 0 799 398;" xml:space="preserve">
<style type="text/css">
	.st0{fill:#939392;stroke:#000000;stroke-width:6;stroke-miterlimit:10;}
	.st1{fill:#F2CD8B;stroke:#000000;stroke-width:5;stroke-miterlimit:10;}
	.st2{fill:#E9B4EF;}
	.st3{fill:none;stroke:#000000;stroke-width:1.6585;stroke-miterlimit:10;}
	.st4{fill:#FFFFFF;}
	.st5{fill:#FFC545;}
	.st6{fill:#FFC817;stroke:#000000;stroke-width:2;stroke-miterlimit:10;}
	.st7{fill:#FF501A;stroke:#000000;stroke-width:2;stroke-miterlimit:10;}
	.st8{stroke:#000000;stroke-width:1.6316;stroke-miterlimit:10;}
	.st9{fill:#FFFFFF;stroke:#000000;stroke-width:0.8158;stroke-miterlimit:10;}
	.st10{stroke:#000000;stroke-width:1.75;stroke-miterlimit:10;}
	.st11{stroke:#000000;stroke-width:1.4183;stroke-miterlimit:10;}
	.st12{fill:#ED7CAA;}
</style>
<path class="st0" d="M530.58,310.13c7.5,25.15,20.38,31.41,27.38,31.55s13.92-45.73,13.92-45.73l-44.83-8.9L530.58,310.13z"/>
<path class="st0" d="M244.08,323.14c12.67,22.99,26.58,26.37,33.45,25.02c6.87-1.35,3.89-47.64,3.89-47.64l-45.7,0.82L244.08,323.14
	z"/>
<path class="st0" d="M158.87,313.08c6.04,25.55,18.53,32.54,25.51,33.08c6.98,0.54,16.53-44.85,16.53-44.85l-44.24-11.47
	L158.87,313.08z"/>
<path class="st0" d="M624.12,311.47c10.89,23.58,24.5,27.92,31.45,27.09c6.95-0.83,7.49-46.69,7.49-46.69l-45.62-2.49L624.12,311.47
	z"/>
<path class="st0" d="M156.5,199.5c0,0-27,4-49,6s-69-10-69,5s10,23,25,29s93-9,93-9V199.5z"/>
<path class="st1" d="M542.72,308H192.28c-27.22,0-49.28-22.07-49.28-49.28V111.28C143,84.07,165.07,62,192.28,62h350.43
	C569.93,62,592,84.07,592,111.28v147.43C592,285.93,569.93,308,542.72,308z"/>
<path class="st2" d="M511.86,294H225.14c-32.66,0-59.14-26.48-59.14-59.14v-97.71C166,104.48,192.48,78,225.14,78h286.71
	c32.66,0,59.14,26.48,59.14,59.14v97.71C571,267.52,544.52,294,511.86,294z"/>
<path class="st0" d="M586,152l57-1c0,0,33-57,45-57c0,0,13,21,20,60c0,0,24,16,24,67s-28,65-65,76c-34.51,10.26-93,2-93,2
	s-70.91-6.56-72-61c-0.9-44.8,7.9-52.87,25-75c0,0,0-44,11-69C538,94,569,121,586,152z"/>
<g>
	<rect x="557" y="190" class="st8" width="31" height="36.71"/>
	<rect x="557" y="190" class="st9" width="15.5" height="18.76"/>
</g>
<rect x="657" y="190" class="st8" width="31" height="36.71"/>
<rect x="657" y="190" class="st9" width="15.5" height="18.76"/>
<rect x="627.5" y="215.5" class="st10" width="17.5" height="16.62"/>
<rect x="594" y="265.53" class="st11" width="14.18" height="13.47"/>
<rect x="594" y="251.26" class="st11" width="14.18" height="13.47"/>
<rect x="608.18" y="265.53" class="st11" width="14.18" height="13.47"/>
<rect x="622.37" y="265.53" class="st11" width="14.18" height="13.47"/>
<rect x="622.37" y="251.26" class="st11" width="14.18" height="13.47"/>
<rect x="636.55" y="265.53" class="st11" width="14.18" height="13.47"/>
<rect x="650.82" y="265.53" class="st11" width="14.18" height="13.47"/>
<rect x="650.82" y="251.26" class="st11" width="14.18" height="13.47"/>
<rect x="517" y="244" class="st12" width="28" height="28"/>
<rect x="688" y="244" class="st12" width="29" height="29"/>
</svg>
