<?xml version="1.0" encoding="utf-8"?>
<!-- Generator: Adobe Illustrator 23.0.2, SVG Export Plug-In . SVG Version: 6.00 Build 0)  -->
<svg version="1.1" id="Layer_1" xmlns="http://www.w3.org/2000/svg" xmlns:xlink="http://www.w3.org/1999/xlink" x="0px" y="0px"
	 viewBox="0 0 380 377" style="enable-background:new 0 0 380 377;" xml:space="preserve">
<style type="text/css">
	.st0{fill:none;stroke:#000000;stroke-width:1.6585;stroke-miterlimit:10;}
	.st1{fill:#FFFFFF;}
	.st2{fill:#FFC545;}
	.st3{fill:#FFC817;stroke:#000000;stroke-width:2;stroke-miterlimit:10;}
	.st4{fill:#FF501A;stroke:#000000;stroke-width:2;stroke-miterlimit:10;}
	.st5{fill:none;stroke:#000000;stroke-width:2;stroke-miterlimit:10;}
	.st6{stroke:#000000;stroke-width:1.6316;stroke-miterlimit:10;}
	.st7{fill:#FFFFFF;stroke:#000000;stroke-width:0.8158;stroke-miterlimit:10;}
	.st8{stroke:#000000;stroke-width:1.75;stroke-miterlimit:10;}
	.st9{stroke:#000000;stroke-width:1.4183;stroke-miterlimit:10;}
	.st10{fill:none;stroke:#000000;stroke-width:1.4183;stroke-miterlimit:10;}
</style>
<g>
	<path class="st1" d="M130.5,263C87.21,263,52,238.55,52,208.5c0-26.38,27.12-48.93,64.48-53.62l0.69-0.09l0.16-0.68
		C123.78,126.82,152.66,107,186,107c36.57,0,67.23,23.86,69.8,54.33l0.14,1.69l1.41-0.94c7.9-5.28,17.11-8.07,26.64-8.07
		c26.47,0,48,21.53,48,48s-21.53,48-48,48c-9.74,0-19.13-2.91-27.14-8.41l-0.51-0.35l-0.54,0.29c-7.63,4.17-17.69,6.46-28.32,6.46
		c-12.23,0-23.69-3.05-31.45-8.37l-0.68-0.47l-0.59,0.58C180.06,254.31,156.03,263,130.5,263z"/>
	<path d="M186,108c17.63,0,34.41,5.55,47.25,15.62c12.68,9.95,20.34,23.37,21.56,37.79l0.29,3.38l2.82-1.89
		c7.73-5.17,16.76-7.91,26.09-7.91c25.92,0,47,21.08,47,47s-21.08,47-47,47c-9.54,0-18.73-2.85-26.57-8.24l-1.01-0.7l-1.08,0.59
		c-7.49,4.09-17.38,6.34-27.84,6.34c-12.03,0-23.29-2.99-30.89-8.2l-1.36-0.93l-1.17,1.16C179.54,253.41,155.77,262,130.5,262
		C87.77,262,53,238,53,208.5c0-12.49,6.4-24.65,18.02-34.24c11.66-9.63,27.85-16.15,45.59-18.38l1.38-0.17l0.32-1.35
		C124.65,127.49,153.12,108,186,108 M186,106c-34.47,0-63.2,20.59-69.64,47.89C79.2,158.55,51,181.22,51,208.5
		c0,30.65,35.59,55.5,79.5,55.5c26.86,0,50.59-9.31,64.98-23.55c7.61,5.22,19.13,8.55,32.02,8.55c11.19,0,21.33-2.51,28.8-6.59
		c7.88,5.41,17.42,8.59,27.7,8.59c27.06,0,49-21.94,49-49s-21.94-49-49-49c-10.07,0-19.42,3.04-27.2,8.24
		C254.19,130.37,223.5,106,186,106L186,106z"/>
</g>
</svg>
