<?xml version="1.0" encoding="utf-8"?>
<!-- Generator: Adobe Illustrator 23.0.2, SVG Export Plug-In . SVG Version: 6.00 Build 0)  -->
<svg version="1.1" id="Layer_1" xmlns="http://www.w3.org/2000/svg" xmlns:xlink="http://www.w3.org/1999/xlink" x="0px" y="0px"
	 viewBox="0 0 473 410" style="enable-background:new 0 0 473 410;" xml:space="preserve">
<style type="text/css">
	.st0{fill:url(#SVGID_1_);}
	.st1{fill:url(#SVGID_2_);}
	.st2{fill:url(#SVGID_3_);}
	.st3{fill:none;stroke:#FF0000;stroke-width:11.3966;stroke-miterlimit:10;}
	.st4{fill:none;stroke:#F7931E;stroke-width:13.3759;stroke-miterlimit:10;}
	.st5{fill:none;stroke:#FFFF00;stroke-width:13.3759;stroke-miterlimit:10;}
	.st6{fill:none;stroke:#39B54A;stroke-width:13.3759;stroke-miterlimit:10;}
	.st7{fill:none;stroke:#0000FF;stroke-width:13.3759;stroke-miterlimit:10;}
	.st8{fill:none;stroke:#F7931E;stroke-width:11.4968;stroke-miterlimit:10;}
	.st9{fill:none;stroke:#662D91;stroke-width:13.3759;stroke-miterlimit:10;}
	.st10{fill:none;stroke:#FF0000;stroke-width:11.4968;stroke-miterlimit:10;}
	.st11{fill:none;stroke:#FFFF00;stroke-width:11.4968;stroke-miterlimit:10;}
	.st12{fill:none;stroke:#39B54A;stroke-width:11.4968;stroke-miterlimit:10;}
	.st13{fill:none;stroke:#0000FF;stroke-width:11.4968;stroke-miterlimit:10;}
	.st14{fill:none;stroke:#662D91;stroke-width:11.4968;stroke-miterlimit:10;}
	.st15{fill:none;stroke:#000000;stroke-width:1.9768;stroke-miterlimit:10;}
	.st16{fill:none;stroke:#000000;stroke-width:1.9712;stroke-miterlimit:10;}
	.st17{fill:#FFFFFF;stroke:#C1272D;stroke-width:2;stroke-miterlimit:10;}
	.st18{fill:url(#SVGID_4_);}
	.st19{fill:url(#SVGID_5_);}
	.st20{fill:url(#SVGID_6_);}
	.st21{fill:url(#SVGID_7_);}
	.st22{fill:url(#SVGID_8_);}
	.st23{fill:url(#SVGID_9_);}
	.st24{fill:url(#SVGID_10_);}
	.st25{fill:url(#SVGID_11_);}
	.st26{fill:url(#SVGID_12_);}
	.st27{fill:none;stroke:#662D91;stroke-width:11.9639;stroke-miterlimit:10;}
	.st28{fill:none;stroke:#0000FF;stroke-width:11.9639;stroke-miterlimit:10;}
	.st29{fill:none;stroke:#39B54A;stroke-width:11.9639;stroke-miterlimit:10;}
	.st30{fill:none;stroke:#FFFF00;stroke-width:11.9639;stroke-miterlimit:10;}
	.st31{fill:none;stroke:#F7931E;stroke-width:11.9639;stroke-miterlimit:10;}
	.st32{fill:none;stroke:#FF0000;stroke-width:11.9639;stroke-miterlimit:10;}
</style>
<g>
	<linearGradient id="SVGID_1_" gradientUnits="userSpaceOnUse" x1="57.853" y1="308.575" x2="413.9405" y2="102.9878">
		<stop  offset="0" style="stop-color:#FF766A"/>
		<stop  offset="1" style="stop-color:#FF7F7F"/>
	</linearGradient>
	<path class="st0" d="M50.01,294.99V117.1l3.55,0.31c0.31,0.04,1.08,0.06,3.74,0.16c6.08,0.21,18.72,0.66,25.58,1.43
		c6.41,0.72,12.94,1.04,21.17,1.04c1.62,0,3.24-0.01,4.88-0.03l42.95,6l176.78-9c0.38-0.02,38-1.79,43.37-2
		c0.06,0,12.51,0.27,21.02,0.27c5.69,0,7.41-0.11,8.05-0.25l20.87,1.9L421,294.92l-110.07-7.93l-148.85,8L50.01,294.99z"/>
	<path d="M372.02,116.02c0.96,0.02,12.83,0.27,21.04,0.27c5.19,0,7.19-0.08,8.11-0.24l19.8,1.8l-0.98,175.99l-108.93-7.85
		l-0.13-0.01l-0.13,0.01l-148.74,8H51.02V118.2l2.48,0.22l0,0c0.44,0.04,1.37,0.08,3.75,0.16c6.07,0.21,18.69,0.66,25.52,1.43
		c6.45,0.72,13.01,1.05,21.27,1.05c1.6,0,3.2-0.01,4.82-0.03l42.78,5.98l0.19,0.03l0.19-0.01l176.67-9
		C329.09,118,366.43,116.24,372.02,116.02 M401,114c-0.32,0.2-3.65,0.27-7.94,0.27c-8.59,0-21.06-0.27-21.06-0.27
		c-5.44,0.21-43.39,2-43.39,2l-176.68,9L109,119c-1.66,0.02-3.31,0.03-4.95,0.03c-7.05,0-13.93-0.23-21.05-1.03
		c-9.34-1.05-29.05-1.49-29.33-1.59L49,116v180h113.12l148.79-8L422,296l1-180L401,114L401,114z"/>
</g>
<path class="st3" d="M109.85,122.38c10.51,25.22,28.07,47.08,48.61,64.9c21.06,18.28,45.63,32.58,72.05,41.54
	c16.46,5.58,33.67,9.06,51.06,9.73"/>
<path class="st4" d="M98.37,121.32C104,136,112,151,122,164c39,48,96,77,155.95,78.7"/>
<path class="st5" d="M89.02,120.66C92,132,96,143,102,153c1,2,4,3,5,5c17,30,45,48,74,62c32,16,65,23,100.15,23.69"/>
<path class="st6" d="M78.74,119.47C90,172,135,212,184,230c6,2,10,5,16,7c24,7,48,13,72.56,12.35"/>
<path class="st7" d="M68.29,119.22c2.28,33.51,22.19,62.75,46.79,84.4c25.42,22.38,56.64,38.24,89.14,47.44
	c19.28,5.46,39.3,8.57,59.36,8.57"/>
<g>
	<path class="st8" d="M407.42,115.55C395,158,366,191,336,222c-16,16-34,28-55,36c-9,3-23.25,3.12-33.5,0.5"/>
</g>
<path class="st9" d="M57,121.92c2.63,81.78,103.6,142.29,194.75,138.43"/>
<g>
	<path class="st10" d="M417.43,115.72c-2.75,14.11-9.17,27.37-16.72,39.51c-8.87,14.25-19.64,27.31-31.36,39.3
		c-12.09,12.35-25.3,23.64-39.46,33.55c-12.91,9.04-22.67,18.69-37.39,24.42c-11.73,4.57-43.96,4.96-45.27,4.73"/>
</g>
<g>
	<path class="st11" d="M394.7,117.94C376,162,350,202,311,234c-17,13-36,27-59.25,23.23"/>
</g>
<g>
	<path class="st12" d="M382.43,116.64C362,163,332,203,294,238c-5,4-10,7-15,11c-10,6-20,12-31.77,9.27"/>
</g>
<g>
	<path class="st13" d="M371.7,117.06C355,157,330,192,297,222c-16,14-32,27-51,36c-1,0-3,0-5.1,0.27"/>
</g>
<g>
	<path class="st14" d="M359.89,117.24C338,166,310,213,269,248c-11,5-23,15-36.23,11.3"/>
</g>
<g>
	<path class="st15" d="M62.01,118.21C62,177,64,237,64,296.01"/>
</g>
<g>
	<path class="st15" d="M68.01,118.8C68,178,70,237,70,296"/>
</g>
<g>
	<path class="st15" d="M74.01,119.09C74,178,76,237,76,296"/>
</g>
<g>
	<line class="st15" x1="80" y1="120" x2="82" y2="296"/>
</g>
<g>
	<line class="st15" x1="86.05" y1="121.13" x2="88" y2="296"/>
</g>
<g>
	<line class="st16" x1="385.06" y1="118.13" x2="387" y2="292.01"/>
</g>
<g>
	<line class="st16" x1="392.06" y1="116.13" x2="393" y2="292.01"/>
</g>
<g>
	<line class="st16" x1="399" y1="117" x2="399" y2="292"/>
</g>
<g>
	<line class="st16" x1="406" y1="117" x2="405" y2="292"/>
</g>
<g>
	<line class="st16" x1="413" y1="117" x2="411" y2="292"/>
</g>
<path class="st17" d="M126.74,240.93c-4.36,0.56-8.25,0.62-11.66,0.2c-3.41-0.42-6.61-1.08-9.6-1.97l-1.73-13.55l1.3-0.17
	c3.17,2.06,6.55,3.52,10.16,4.38c3.61,0.86,7.03,1.09,10.27,0.67c0.82-0.1,1.88-0.33,3.2-0.68c1.32-0.35,2.36-0.77,3.13-1.25
	c0.94-0.56,1.7-1.27,2.29-2.14c0.59-0.87,0.8-1.94,0.64-3.21c-0.18-1.43-0.89-2.52-2.13-3.27c-1.24-0.75-2.66-1.23-4.27-1.44
	c-2-0.26-4.14-0.48-6.4-0.66c-2.27-0.18-4.4-0.48-6.39-0.9c-4.61-0.99-8.04-2.68-10.29-5.07c-2.25-2.38-3.62-5.55-4.13-9.51
	c-0.68-5.33,1.03-9.94,5.12-13.82c4.1-3.88,9.52-6.25,16.28-7.11c3.39-0.43,6.81-0.52,10.25-0.26c3.44,0.26,6.56,0.81,9.37,1.65
	l1.66,13.01l-1.26,0.16c-2.35-1.54-5.13-2.74-8.33-3.6c-3.21-0.86-6.42-1.09-9.63-0.68c-1.25,0.16-2.36,0.39-3.33,0.7
	c-0.97,0.31-1.97,0.78-3.01,1.43c-0.84,0.52-1.54,1.23-2.08,2.11c-0.55,0.89-0.76,1.83-0.63,2.82c0.19,1.46,0.85,2.54,1.99,3.27
	c1.14,0.72,3.24,1.24,6.28,1.55c1.97,0.19,3.86,0.38,5.69,0.56c1.82,0.18,3.79,0.5,5.9,0.96c4.14,0.93,7.32,2.47,9.55,4.64
	c2.23,2.17,3.6,5.23,4.11,9.18c0.72,5.66-0.92,10.5-4.94,14.51C140.11,237.48,134.32,239.97,126.74,240.93z"/>
<path class="st17" d="M199.57,231.12l-15.85,2.51l-14.53-16.8l-1.62,3.11l2.51,15.85l-13.34,2.11l-9.38-59.28l13.34-2.11l5.25,33.22
	l10-18.73l15.74-2.49l-12.06,20.81L199.57,231.12z"/>
<path class="st17" d="M208.94,181.61l-14.15,1.9l-1.4-10.44l14.15-1.9L208.94,181.61z M215.14,230.71l-13.38,1.79L196,189.57
	l13.38-1.79L215.14,230.71z"/>
<path class="st17" d="M237.09,229.52c-5.48,0.51-9.57-0.25-12.28-2.28c-2.7-2.02-4.29-5.6-4.77-10.72l-1.86-20.17l-5.15,0.47
	l-0.86-9.37l5.15-0.47l-1.14-12.33l13.44-1.24l1.14,12.33l12.94-1.19l0.86,9.37l-12.94,1.19l1.41,15.29
	c0.14,1.51,0.27,2.83,0.4,3.95c0.13,1.12,0.43,2.12,0.89,2.98c0.44,0.86,1.14,1.51,2.1,1.96c0.96,0.44,2.31,0.58,4.05,0.42
	c0.72-0.07,1.64-0.31,2.78-0.72c1.14-0.41,1.92-0.77,2.36-1.07l1.15-0.11l0.87,9.49c-1.42,0.52-2.95,0.96-4.56,1.33
	C241.47,229,239.47,229.3,237.09,229.52z"/>
<path class="st17" d="M267.1,226.75c-5.48,0.51-9.57-0.25-12.28-2.28c-2.7-2.02-4.29-5.6-4.77-10.72l-1.86-20.17l-5.15,0.47
	l-0.86-9.37l5.15-0.47l-1.14-12.33l13.44-1.24l1.14,12.33l12.94-1.19l0.86,9.37l-12.94,1.19l1.41,15.29
	c0.14,1.51,0.27,2.83,0.4,3.95c0.13,1.12,0.43,2.12,0.89,2.98c0.44,0.86,1.14,1.52,2.1,1.96c0.96,0.44,2.31,0.58,4.05,0.42
	c0.72-0.07,1.64-0.31,2.78-0.72c1.14-0.41,1.92-0.77,2.36-1.07l1.15-0.11l0.87,9.49c-1.42,0.52-2.95,0.96-4.56,1.33
	C271.48,226.24,269.48,226.53,267.1,226.75z"/>
<path class="st17" d="M296.12,225.21l-13.45,1.13l-5.01-59.81l13.45-1.13L296.12,225.21z"/>
<path class="st17" d="M321.48,227.03c-8.18,0-14.45-1.95-18.81-5.86c-4.36-3.91-6.54-9.48-6.54-16.7c0-7.07,2.03-12.72,6.09-16.93
	c4.06-4.22,9.75-6.33,17.05-6.33c6.63,0,11.62,1.79,14.97,5.36c3.34,3.57,5.01,8.69,5.01,15.35v4.86h-29.59
	c0.13,2.01,0.55,3.68,1.27,5.03c0.72,1.35,1.67,2.42,2.85,3.22c1.16,0.8,2.51,1.37,4.05,1.72c1.54,0.35,3.23,0.52,5.05,0.52
	c1.57,0,3.11-0.17,4.63-0.52c1.52-0.35,2.91-0.8,4.17-1.37c1.11-0.49,2.13-1.02,3.07-1.58c0.94-0.56,1.7-1.07,2.3-1.5h1.43v11.15
	c-1.11,0.44-2.12,0.84-3.03,1.21s-2.17,0.75-3.76,1.14c-1.47,0.39-2.98,0.69-4.53,0.91C325.61,226.92,323.71,227.03,321.48,227.03z
	 M325.95,198.64c-0.08-2.85-0.74-5.03-1.99-6.52s-3.16-2.24-5.73-2.24c-2.62,0-4.67,0.79-6.15,2.35c-1.48,1.57-2.29,3.7-2.45,6.4
	H325.95z"/>
<path class="st17" d="M356.71,231.07c-3.19,0-6.2-0.35-9.05-1.04s-5.19-1.5-7.04-2.43v-11.42h1.12c0.64,0.49,1.38,1.03,2.2,1.62
	c0.82,0.59,1.97,1.21,3.43,1.85c1.26,0.59,2.68,1.1,4.26,1.52c1.58,0.42,3.3,0.64,5.15,0.64c1.9,0,3.58-0.29,5.03-0.89
	c1.45-0.59,2.18-1.53,2.18-2.82c0-1-0.33-1.76-1-2.28c-0.67-0.51-1.97-1-3.9-1.47c-1.03-0.26-2.33-0.53-3.9-0.83
	c-1.57-0.3-2.96-0.64-4.17-1.02c-3.39-1.05-5.95-2.62-7.66-4.69c-1.71-2.07-2.57-4.79-2.57-8.16c0-1.93,0.44-3.75,1.33-5.46
	c0.89-1.71,2.19-3.23,3.92-4.57c1.72-1.31,3.85-2.35,6.38-3.12s5.39-1.16,8.58-1.16c3.03,0,5.82,0.3,8.37,0.91
	c2.54,0.6,4.69,1.33,6.44,2.18v10.96h-1.08c-0.46-0.36-1.2-0.84-2.2-1.45c-1-0.6-1.98-1.12-2.93-1.56c-1.13-0.51-2.4-0.94-3.8-1.27
	c-1.4-0.33-2.84-0.5-4.3-0.5c-1.96,0-3.61,0.33-4.96,1c-1.35,0.67-2.03,1.56-2.03,2.66c0,0.98,0.33,1.75,1,2.31
	c0.67,0.57,2.12,1.12,4.36,1.66c1.16,0.28,2.49,0.56,3.99,0.83c1.5,0.27,2.95,0.64,4.34,1.1c3.11,1,5.47,2.48,7.08,4.42
	c1.61,1.94,2.41,4.52,2.41,7.73c0,2.03-0.48,3.97-1.43,5.8c-0.95,1.84-2.3,3.39-4.05,4.65c-1.85,1.36-4.03,2.42-6.54,3.16
	C363.21,230.7,360.21,231.07,356.71,231.07z"/>
</svg>
