<?xml version="1.0" encoding="utf-8"?>
<!-- Generator: Adobe Illustrator 23.0.2, SVG Export Plug-In . SVG Version: 6.00 Build 0)  -->
<svg version="1.1" id="Layer_1" xmlns="http://www.w3.org/2000/svg" xmlns:xlink="http://www.w3.org/1999/xlink" x="0px" y="0px"
	 viewBox="0 0 674 544" style="enable-background:new 0 0 674 544;" xml:space="preserve">
<style type="text/css">
	.st0{fill:#6D0333;stroke:#000000;stroke-width:2;stroke-miterlimit:10;}
	.st1{fill:#FF83A1;stroke:#000000;stroke-width:2.3971;stroke-miterlimit:10;}
	.st2{fill:none;stroke:#000000;stroke-width:2;stroke-miterlimit:10;}
	.st3{fill:#FFFFFF;stroke:#000000;stroke-width:2.4147;stroke-miterlimit:10;}
	.st4{fill:#FFFFFF;stroke:#000000;stroke-width:2.4004;stroke-miterlimit:10;}
	.st5{fill:#FFFFFF;stroke:#000000;stroke-width:2.4485;stroke-miterlimit:10;}
	.st6{fill:#FFFFFF;stroke:#000000;stroke-width:2.6438;stroke-miterlimit:10;}
	.st7{fill:#FFFFFF;stroke:#000000;stroke-width:2.1559;stroke-miterlimit:10;}
	.st8{fill:#FFFFFF;stroke:#000000;stroke-width:2.2682;stroke-miterlimit:10;}
	.st9{fill:#C10000;stroke:#000000;stroke-width:2;stroke-miterlimit:10;}
	.st10{fill:#FFFFFF;stroke:#000000;stroke-width:2;stroke-miterlimit:10;}
</style>
<path class="st0" d="M106,250c0,0,10,6,15,15c24.25,43.65,36.52,158.01,176.41,98.52c0,0,191.59,6.48,231.59-21.52s85-152,85-152
	l-265-24l-169,33l-84,46L106,250z"/>
<ellipse transform="matrix(0.8287 -0.5597 0.5597 0.8287 -84.9794 243.3882)" class="st1" cx="355.16" cy="260.53" rx="193.22" ry="139.98"/>
<path class="st2" d="M293.26,308.67c3.5-31.95,24.38-88.63,43.48-95.34"/>
<path class="st3" d="M200.95,415.5l-34.32-3.36c-13.88-1.36-24.04-13.72-22.68-27.6l2.48-25.36c1.36-13.88,13.72-24.04,27.6-22.68
	l34.32,3.36c13.88,1.36,24.04,13.72,22.68,27.6l-2.48,25.36C227.19,406.71,214.84,416.86,200.95,415.5z"/>
<path class="st4" d="M287.86,421h-29.73c-14.99,0-27.14-12.15-27.14-27.14v-21.73c0-14.99,12.15-27.14,27.14-27.14h29.73
	c14.99,0,27.14,12.15,27.14,27.14v21.73C315,408.85,302.85,421,287.86,421z"/>
<path class="st5" d="M372.3,423H339.7c-13.64,0-24.7-11.06-24.7-24.7V366.7c0-13.64,11.06-24.7,24.7-24.7h32.61
	c13.64,0,24.7,11.06,24.7,24.7v31.61C397,411.94,385.94,423,372.3,423z"/>
<path class="st6" d="M461.7,418.13l-29.04,2.44c-16.2,1.36-30.43-10.67-31.79-26.86l-2.44-29.04c-1.36-16.2,10.67-30.43,26.86-31.79
	l29.04-2.44c16.2-1.36,30.43,10.67,31.79,26.86l2.44,29.04C489.92,402.54,477.9,416.77,461.7,418.13z"/>
<path class="st7" d="M267.22,242h-73.44c-15.89,0-28.78-12.88-28.78-28.78v-37.44c0-15.89,12.88-28.78,28.78-28.78h73.44
	c15.89,0,28.78,12.88,28.78,28.78v37.44C296,229.12,283.12,242,267.22,242z"/>
<path class="st8" d="M415.15,242h-99.3c-12.62,0-22.85-10.23-22.85-22.85v-49.3c0-12.62,10.23-22.85,22.85-22.85h99.3
	c12.62,0,22.85,10.23,22.85,22.85v49.3C438,231.77,427.77,242,415.15,242z"/>
<path class="st9" d="M286.5,181.5c13,1,132,55,197,56c64.54,0.99,130.05-47.3,130.98-47.98c-32.96-12.01-64.6-25.64-99.98-48.02
	c-63.23-39.99-82.31-72.4-117-68c-33.3,4.23-38.45,36.97-74,38c-29.76,0.86-41.8-21.64-64-27c-29.18-7.04-86.77,38.35-168,163l70-10
	C213.5,233.5,273.5,180.5,286.5,181.5z"/>
<path class="st9" d="M614.49,189.52c-0.3,0.92-27.1,82.03-45.99,90.98c-19,9-14,1-57,30s-77,83-141,69s-61-22-81-13s-25,13-55,15
	s-68-18-119-126c0,0-19,19-19,36s18.06,156.46,102,166c88,10,101-14,101-14s64,31,141,23s125.88-115.74,144-168
	c9.26-26.69,30.26-108.88,30.26-108.88C614.67,189.59,614.58,189.55,614.49,189.52z"/>
<path class="st9" d="M614.48,189.52c0.01,0,0.01,0,0.01,0.01c0-0.01,0.01-0.02,0.01-0.02S614.48,189.51,614.48,189.52z"/>
<path class="st10" d="M472.5,141.5c23.47,15.07,34.52,14.4,29,23s-19.53,12.07-43-3s-36.52-28.4-31-37S449.03,126.43,472.5,141.5z"
	/>
</svg>
