<?xml version="1.0" encoding="utf-8"?>
<!-- Generator: Adobe Illustrator 23.0.2, SVG Export Plug-In . SVG Version: 6.00 Build 0)  -->
<svg version="1.1" id="Layer_1" xmlns="http://www.w3.org/2000/svg" xmlns:xlink="http://www.w3.org/1999/xlink" x="0px" y="0px"
	 viewBox="0 0 222 222" style="enable-background:new 0 0 222 222;" xml:space="preserve">
<style type="text/css">
	.st0{fill:url(#SVGID_1_);}
	.st1{fill:url(#SVGID_2_);}
	.st2{fill:#FFFFFF;}
</style>
<g>
	<radialGradient id="SVGID_1_" cx="111.5" cy="112.5" r="100.5" gradientUnits="userSpaceOnUse">
		<stop  offset="0.3396" style="stop-color:#FF7F7F"/>
		<stop  offset="1" style="stop-color:#BF0000"/>
	</radialGradient>
	<circle class="st0" cx="111.5" cy="112.5" r="100.5"/>
	<radialGradient id="SVGID_2_" cx="111.5" cy="112.5" r="100.5" gradientUnits="userSpaceOnUse">
		<stop  offset="0.5651" style="stop-color:#FF7F7F"/>
		<stop  offset="1" style="stop-color:#AA1200"/>
	</radialGradient>
	<path class="st1" d="M111.5,28c46.59,0,84.5,37.91,84.5,84.5S158.09,197,111.5,197S27,159.09,27,112.5S64.91,28,111.5,28 M111.5,12
		C56,12,11,57,11,112.5S56,213,111.5,213S212,168,212,112.5S167,12,111.5,12L111.5,12z"/>
</g>
<g>
	<path class="st2" d="M114.88,143.08c4.69,0,8.52-0.91,11.48-2.73c2.97-1.82,4.45-4.38,4.45-7.66c0-2.92-0.89-4.95-2.66-6.09
		c-1.82-1.2-4.25-1.85-7.27-1.95l-14.38-1.25c-6.82-0.62-12.37-2.92-16.64-6.88c-4.38-3.85-6.62-9.24-6.72-16.17
		c0.1-8.33,3.05-14.58,8.83-18.75c5.62-4.17,12.76-6.25,21.41-6.25c3.75,0,7.11,0.23,10.08,0.7c2.97,0.52,5.75,1.25,8.36,2.19
		c5,2.03,9.48,4.77,13.44,8.2l-10.08,11.8c-3.12-2.24-6.43-4.09-9.92-5.55c-3.44-1.3-7.4-1.95-11.88-1.95
		c-5.1,0-8.67,0.91-10.7,2.73c-2.14,1.82-3.2,4.17-3.2,7.03c-0.1,1.82,0.7,3.41,2.42,4.77c1.56,1.51,4.32,2.47,8.28,2.89l13.44,1.02
		c8.44,0.62,14.53,3.18,18.28,7.66c3.49,4.38,5.23,9.92,5.23,16.64c-0.1,7.87-3.31,13.93-9.61,18.2
		c-6.25,4.38-14.25,6.61-23.98,6.72c-13.23,0-25.13-4.84-35.7-14.53l11.41-11.17C95.87,139.61,104.41,143.08,114.88,143.08z"/>
</g>
</svg>
