<?xml version="1.0" encoding="utf-8"?>
<!-- Generator: Adobe Illustrator 23.0.2, SVG Export Plug-In . SVG Version: 6.00 Build 0)  -->
<svg version="1.1" id="Layer_1" xmlns="http://www.w3.org/2000/svg" xmlns:xlink="http://www.w3.org/1999/xlink" x="0px" y="0px"
	 viewBox="0 0 366 377" style="enable-background:new 0 0 366 377;" xml:space="preserve">
<style type="text/css">
	.st0{fill:none;stroke:#000000;stroke-width:1.6585;stroke-miterlimit:10;}
	.st1{fill:#FFFFFF;}
	.st2{fill:#FFC545;}
	.st3{fill:#FFC817;stroke:#000000;stroke-width:2;stroke-miterlimit:10;}
	.st4{fill:#FF501A;stroke:#000000;stroke-width:2;stroke-miterlimit:10;}
	.st5{fill:none;stroke:#000000;stroke-width:2;stroke-miterlimit:10;}
	.st6{stroke:#000000;stroke-width:1.6316;stroke-miterlimit:10;}
	.st7{fill:#FFFFFF;stroke:#000000;stroke-width:0.8158;stroke-miterlimit:10;}
	.st8{stroke:#000000;stroke-width:1.75;stroke-miterlimit:10;}
	.st9{stroke:#000000;stroke-width:1.4183;stroke-miterlimit:10;}
	.st10{fill:none;stroke:#000000;stroke-width:1.4183;stroke-miterlimit:10;}
</style>
<g>
	<circle class="st2" cx="181.66" cy="185.16" r="86.11"/>
	<path d="M181.66,100.05c46.93,0,85.11,38.18,85.11,85.11s-38.18,85.11-85.11,85.11s-85.11-38.18-85.11-85.11
		S134.73,100.05,181.66,100.05 M181.66,98.05c-48.11,0-87.11,39-87.11,87.11c0,48.11,39,87.11,87.11,87.11s87.11-39,87.11-87.11
		C268.77,137.05,229.77,98.05,181.66,98.05L181.66,98.05z"/>
</g>
<g>
	
		<rect x="266.49" y="120.53" transform="matrix(0.8944 -0.4472 0.4472 0.8944 -27.0851 142.386)" class="st3" width="43.09" height="16.06"/>
</g>
<g>
	
		<rect x="212.91" y="68.81" transform="matrix(0.4607 -0.8875 0.8875 0.4607 58.2299 249.521)" class="st3" width="43.09" height="16.06"/>
</g>
<g>
	
		<rect x="152.67" y="44.96" transform="matrix(0.9888 -0.1489 0.1489 0.9888 -8.1116 24.6751)" class="st3" width="16.06" height="43.09"/>
</g>
<g>
	
		<rect x="86.92" y="79.94" transform="matrix(0.7125 -0.7017 0.7017 0.7125 -43.9073 95.8094)" class="st3" width="16.06" height="43.09"/>
</g>
<g>
	
		<rect x="54.3" y="146.88" transform="matrix(0.1639 -0.9865 0.9865 0.1639 -114.0387 202.2994)" class="st3" width="16.06" height="43.09"/>
</g>
<g>
	
		<rect x="53.74" y="233.73" transform="matrix(0.8944 -0.4472 0.4472 0.8944 -100.1726 59.189)" class="st3" width="43.09" height="16.06"/>
</g>
<g>
	
		<rect x="107.32" y="285.45" transform="matrix(0.4607 -0.8875 0.8875 0.4607 -190.9841 272.6358)" class="st3" width="43.09" height="16.06"/>
</g>
<g>
	
		<rect x="194.59" y="282.28" transform="matrix(0.9888 -0.1489 0.1489 0.9888 -42.9909 33.5655)" class="st3" width="16.06" height="43.09"/>
</g>
<g>
	
		<rect x="260.33" y="247.3" transform="matrix(0.7125 -0.7017 0.7017 0.7125 -111.4864 265.6186)" class="st3" width="16.06" height="43.09"/>
</g>
<g>
	
		<rect x="292.96" y="180.35" transform="matrix(0.1639 -0.9865 0.9865 0.1639 52.4838 465.7206)" class="st3" width="16.06" height="43.09"/>
</g>
</svg>
